<svg id="Layer_1" enable-background="new 0 0 510 510" height="512" viewBox="0 0 510 510" width="512" xmlns="http://www.w3.org/2000/svg"><g id="XMLID_2536_"><path id="XMLID_2604_" d="m7.5 135v315c0 33.084 26.916 60 60 60h120l15-195-15-180-90-15z" fill="#e9f1ff"/><path id="XMLID_2603_" d="m187.5 510h120c33.084 0 60-26.916 60-60v-315l-90-15-90 15z" fill="#d5def0"/><path id="XMLID_2601_" d="m67.5 180v30h120l15-15-15-15z" fill="#76e2f8"/><path id="XMLID_2599_" d="m187.5 180h120v30h-120z" fill="#4bb9ec"/><path id="XMLID_2598_" d="m67.5 270h120l15-15-15-15h-120z" fill="#4bb9ec"/><path id="XMLID_2596_" d="m187.5 240h120v30h-120z" fill="#4b7eec"/><path id="XMLID_2594_" d="m67.5 330h120l15-15-15-15h-120z" fill="#76e2f8"/><path id="XMLID_2592_" d="m187.5 300h120v30h-120z" fill="#4bb9ec"/><path id="XMLID_2590_" d="m67.5 390h120l15-15-15-15h-120z" fill="#4bb9ec"/><path id="XMLID_2588_" d="m67.5 420h120v30h-120z" fill="#6058ad"/><path id="XMLID_2585_" d="m187.5 30h-120c-33.084 0-60 26.916-60 60v45h180l15-45z" fill="#ff7b4a"/><path id="XMLID_2582_" d="m307.5 30h-120v105h180v-45c0-33.084-26.916-60-60-60z" fill="#ff435b"/><path id="XMLID_2581_" d="m82.5 0h30v90h-30z" fill="#6058ad"/><path id="XMLID_2580_" d="m142.5 0h30v90h-30z" fill="#6058ad"/><path id="XMLID_2578_" d="m202.5 0h30v90h-30z" fill="#453f81"/><path id="XMLID_2576_" d="m262.5 0h30v90h-30z" fill="#453f81"/><g id="XMLID_106_"><path id="XMLID_2575_" d="m412.5 390v15l45 99 10-69-10-45-22.5-10z" fill="#ffcebf"/><path id="XMLID_2573_" d="m457.5 504 45-99v-15l-26.5-10-18.5 10z" fill="#fcaf9d"/><path id="XMLID_2571_" d="m457.5 180-22.5-10-22.5 10v210h45l10-105z" fill="#76e2f8"/><path id="XMLID_2568_" d="m457.5 390h45v-210l-22.5-10-22.5 10z" fill="#4bb9ec"/><path id="XMLID_2560_" d="m457.5 0c-24.853 0-45 20.146-45 45v75l22.201 10 22.799-10 10-55z" fill="#ff7b4a"/><path id="XMLID_2556_" d="m457.5 0v120l22.5 10 22.5-10v-75c0-24.854-20.147-45-45-45z" fill="#ff435b"/><path id="XMLID_2553_" d="m457.5 120h-45v60h45l10-30z" fill="#ffda2d"/><path id="XMLID_2550_" d="m457.5 120h45v60h-45z" fill="#fdbf00"/></g><path id="XMLID_92_" d="m187.5 360h60v30h-60z" fill="#4b7eec"/></g></svg>